<svg version="1" xmlns="http://www.w3.org/2000/svg" width="1024" height="1024" viewBox="0 0 768.000000 768.000000"><path d="M360 .6c-3 .2-11.6 1.1-19 2C210.4 17.4 97 97.4 39.2 215.3c-19.8 40.3-32 82.9-37.4 130.2-1.9 16.7-1.6 63.7.6 81.5C16.9 547.6 83.3 650.6 187 713.5c11.3 6.9 36.9 19.8 49.5 25 64.3 26.8 136.8 35.5 206 24.9 147-22.5 268.6-129.2 310-272 20.5-70.8 20.5-144 0-214.8-25.9-89.5-84.8-167.7-163.8-217.4C540.1 28.6 485.6 9.4 427.5 2.5 415.1 1 371.6-.2 360 .6zm77.5 148.8c38.9 6.3 73.8 20.3 101.5 40.6 11.2 8.3 28.9 26.3 37.3 38 8.1 11.5 19.6 34.1 23.7 46.8 7.9 24.6 10.6 52.7 8 83.2-3.3 38.8-13.2 73.5-31.3 109.5-41 81.9-119.5 141.6-199.5 151.9-24.7 3.2-55.4 1.6-76.8-4-36.5-9.4-66.5-32.8-82.3-64.1l-2.1-4.2 7.6-17.8c26.9-62.9 89.2-227.5 117.5-310.8 5.4-15.9 9.7-29.1 9.5-29.3-.8-.7-20.6 9.9-29.1 15.6-33 22.1-56.6 55.3-71.4 100.4-1.3 3.8-2.7 6.8-3.3 6.8-3.2 0-14.2-7.3-20.9-14-5.8-5.7-8.5-9.3-11.1-15-6-12.6-6.3-15.7-3.3-26.4 12.3-42.7 48.8-78.4 97.9-95.5 17.2-6.1 38.6-10.8 58.4-13.1 12.2-1.4 58-.4 69.7 1.4z"/><path d="M393.7 177.5c-12.3 2-26.9 5.7-26 6.6.4.4 6.5 3 13.5 5.9 7 2.8 16.6 7.4 21.5 10.2 10.8 6.2 26.8 16.5 28.1 18.1.7.8-.7 4.1-4.8 10.8-28 45.9-86.8 170.6-118.8 251.4-12.9 32.8-22.5 64.5-23.9 78.8l-.6 6.3 3.9 1.2c7 2 16.7 3.2 31.9 3.8 42.9 1.8 82.2-9.3 119.2-33.5 52.3-34.3 90.4-86.4 110.2-150.8 13.3-43.4 15.9-94.5 6.5-127.1-12.2-42.1-47.4-71.3-97.1-80.8-12.2-2.3-51.4-2.9-63.6-.9z"/></svg>